{"title":"UEFA.Champions.League.2013.05.01.Semi.Finals.2nd.leg.Barcelona.v","uid":8433874,"size":3648238239,"categoryP":"video","categoryS":"hd___tv_shows","magnet":"?xt=urn:btih:7edf6800d912eb09d24c4a0499eeaf3310912aaf&amp;dn=UEFA.Champions.League.2013.05.01.Semi.Finals.2nd.leg.Barcelona.v&amp;tr=udp%3A%2F%2Ftracker.openbittorrent.com%3A80&amp;tr=udp%3A%2F%2Fopen.demonii.com%3A1337&amp;tr=udp%3A%2F%2Ftracker.coppersurfer.tk%3A6969&amp;tr=udp%3A%2F%2Fexodus.desync.com%3A6969","seeders":0,"leechers":0,"uploader":"smokkedog","files":1,"time":1367570103,"description":"UEFA.Champions.League.2013.05.01.Semi.Finals.2nd.leg.Barcelona.vs.bayern - fairplay\n\nSource:                                  : Sky Sports 1 HD \nDuration                                 : 1h 43mn\nLanguage                                 : English\nFormat                                   : Matroska\nFormat version                           : Version 4 / Version 2\nFile size                                : 3.40 GiB\nDuration                                 : 1h 43mn\nOverall bit rate                         : 4 717 Kbps\n\nVideo\nFormat                                   : AVC\nFormat                                   : Advanced Video Codec\nBit rate                                 : 4 239 Kbps\nWidth                                    : 1 280 pixels\nHeight                                   : 720 pixels\nDisplay aspect ratio                     : 16:9\nFrame rate                               : 25.000 fps\nBit depth                                : 8 bits\nStream size                              : 3.05 GiB (90%)\n\nAudio\nFormat                                   : AC-3\nDuration                                 : 1h 43mn\nBit rate mode                            : Constant\nBit rate                                 : 384 Kbps\nChannel(s)                               : 2 channels\nChannel positions                        : Front: L R\nSampling rate                            : 48.0 KHz\nBit depth                                : 16 bits\nCompression mode                         : Lossy\nStream size                              : 283 MiB (8%)\n\n","torrent":{"xt":"urn:btih:7edf6800d912eb09d24c4a0499eeaf3310912aaf","amp;dn":"UEFA.Champions.League.2013.05.01.Semi.Finals.2nd.leg.Barcelona.v","amp;tr":["udp%3A%2F%2Ftracker.openbittorrent.com%3A80","udp%3A%2F%2Fopen.demonii.com%3A1337","udp%3A%2F%2Ftracker.coppersurfer.tk%3A6969","udp%3A%2F%2Fexodus.desync.com%3A6969"],"infoHash":"7edf6800d912eb09d24c4a0499eeaf3310912aaf","infoHashBuffer":{"type":"Buffer","data":[126,223,104,0,217,18,235,9,210,76,74,4,153,238,175,51,16,145,42,175]},"announce":[],"urlList":[]}}